<svg width="50" height="16" viewBox="0 0 50 16" fill="none" xmlns="http://www.w3.org/2000/svg">
<g filter="url(#filter0_d)">
<path d="M1.01562 12V0.625H4.51562C5.51562 0.625 6.40885 0.851562 7.19531 1.30469C7.98698 1.7526 8.60417 2.39323 9.04688 3.22656C9.48958 4.05469 9.71094 4.9974 9.71094 6.05469V6.57812C9.71094 7.63542 9.49219 8.57552 9.05469 9.39844C8.6224 10.2214 8.01042 10.8594 7.21875 11.3125C6.42708 11.7656 5.53385 11.9948 4.53906 12H1.01562ZM3.35938 2.52344V10.1172H4.49219C5.40885 10.1172 6.10938 9.81771 6.59375 9.21875C7.07812 8.61979 7.32552 7.76302 7.33594 6.64844V6.04688C7.33594 4.89062 7.09635 4.01562 6.61719 3.42188C6.13802 2.82292 5.4375 2.52344 4.51562 2.52344H3.35938ZM14.4844 0.625L17.4062 8.875L20.3125 0.625H23.3906V12H21.0391V8.89062L21.2734 3.52344L18.2031 12H16.5938L13.5312 3.53125L13.7656 8.89062V12H11.4219V0.625H14.4844ZM34.3672 8.21094C34.2786 9.4349 33.8255 10.3984 33.0078 11.1016C32.1953 11.8047 31.1224 12.1562 29.7891 12.1562C28.3307 12.1562 27.1823 11.6667 26.3438 10.6875C25.5104 9.70312 25.0938 8.35417 25.0938 6.64062V5.94531C25.0938 4.85156 25.2865 3.88802 25.6719 3.05469C26.0573 2.22135 26.6068 1.58333 27.3203 1.14062C28.0391 0.692708 28.8724 0.46875 29.8203 0.46875C31.1328 0.46875 32.1901 0.820312 32.9922 1.52344C33.7943 2.22656 34.2578 3.21354 34.3828 4.48438H32.0391C31.9818 3.75 31.776 3.21875 31.4219 2.89062C31.0729 2.55729 30.5391 2.39062 29.8203 2.39062C29.0391 2.39062 28.4531 2.67188 28.0625 3.23438C27.6771 3.79167 27.4792 4.65885 27.4688 5.83594V6.69531C27.4688 7.92448 27.6536 8.82292 28.0234 9.39062C28.3984 9.95833 28.987 10.2422 29.7891 10.2422C30.513 10.2422 31.0521 10.0781 31.4062 9.75C31.7656 9.41667 31.9714 8.90365 32.0234 8.21094H34.3672ZM42.3281 9.65625H38.2188L37.4375 12H34.9453L39.1797 0.625H41.3516L45.6094 12H43.1172L42.3281 9.65625ZM38.8516 7.75781H41.6953L40.2656 3.5L38.8516 7.75781Z" fill="#7E8183"/>
</g>
<defs>
<filter id="filter0_d" x="-2.98438" y="0.46875" width="52.5938" height="19.6875" filterUnits="userSpaceOnUse" color-interpolation-filters="sRGB">
<feFlood flood-opacity="0" result="BackgroundImageFix"/>
<feColorMatrix in="SourceAlpha" type="matrix" values="0 0 0 0 0 0 0 0 0 0 0 0 0 0 0 0 0 0 127 0"/>
<feOffset dy="4"/>
<feGaussianBlur stdDeviation="2"/>
<feColorMatrix type="matrix" values="0 0 0 0 0 0 0 0 0 0 0 0 0 0 0 0 0 0 0.25 0"/>
<feBlend mode="normal" in2="BackgroundImageFix" result="effect1_dropShadow"/>
<feBlend mode="normal" in="SourceGraphic" in2="effect1_dropShadow" result="shape"/>
</filter>
</defs>
</svg>
