<svg width="91" height="18" viewBox="0 0 91 18" fill="none" xmlns="http://www.w3.org/2000/svg">
<path fill-rule="evenodd" clip-rule="evenodd" d="M1 0C0.447715 0 0 0.447716 0 1V17C0 17.5523 0.447715 18 1 18H90C90.5523 18 91 17.5523 91 17V1C91 0.447715 90.5523 0 90 0H1ZM31.3125 12.5156C31.7083 11.6719 31.9062 10.6901 31.9062 9.57031V9.0625C31.9062 7.94792 31.7031 6.96615 31.2969 6.11719C30.8958 5.26302 30.3255 4.60938 29.5859 4.15625C28.8516 3.69792 28.0104 3.46875 27.0625 3.46875C26.1146 3.46875 25.2708 3.69792 24.5312 4.15625C23.7969 4.60938 23.2266 5.26302 22.8203 6.11719C22.4193 6.96615 22.2188 7.95052 22.2188 9.07031V9.63281C22.224 10.7266 22.4297 11.6953 22.8359 12.5391C23.2422 13.3776 23.8151 14.0234 24.5547 14.4766C25.2943 14.9297 26.1354 15.1562 27.0781 15.1562C28.0312 15.1562 28.875 14.9271 29.6094 14.4688C30.349 14.0104 30.9167 13.3594 31.3125 12.5156ZM28.8906 6.33594C29.3177 6.95573 29.5312 7.86198 29.5312 9.05469V9.60938C29.526 10.7917 29.3125 11.6927 28.8906 12.3125C28.4688 12.9271 27.8646 13.2344 27.0781 13.2344C26.276 13.2344 25.6615 12.9141 25.2344 12.2734C24.8073 11.6328 24.5938 10.7318 24.5938 9.57031V9.01562C24.599 7.83333 24.8151 6.9375 25.2422 6.32812C25.6693 5.71354 26.276 5.40625 27.0625 5.40625C27.8542 5.40625 28.4635 5.71615 28.8906 6.33594ZM4.35938 10.9922V15H2.01562V3.625H6.45312C7.30729 3.625 8.05729 3.78125 8.70312 4.09375C9.35417 4.40625 9.85417 4.85156 10.2031 5.42969C10.5521 6.0026 10.7266 6.65625 10.7266 7.39062C10.7266 8.50521 10.3438 9.38542 9.57812 10.0312C8.81771 10.6719 7.76302 10.9922 6.41406 10.9922H4.35938ZM4.35938 9.09375H6.45312C7.07292 9.09375 7.54427 8.94792 7.86719 8.65625C8.19531 8.36458 8.35938 7.94792 8.35938 7.40625C8.35938 6.84896 8.19531 6.39844 7.86719 6.05469C7.53906 5.71094 7.08594 5.53385 6.50781 5.52344H4.35938V9.09375ZM16.5547 10.8359H14.6875V15H12.3438V3.625H16.5703C17.9141 3.625 18.9505 3.92448 19.6797 4.52344C20.4089 5.1224 20.7734 5.96875 20.7734 7.0625C20.7734 7.83854 20.6042 8.48698 20.2656 9.00781C19.9323 9.52344 19.4245 9.9349 18.7422 10.2422L21.2031 14.8906V15H18.6875L16.5547 10.8359ZM14.6875 8.9375H16.5781C17.1667 8.9375 17.6224 8.78906 17.9453 8.49219C18.2682 8.1901 18.4297 7.77604 18.4297 7.25C18.4297 6.71354 18.276 6.29167 17.9688 5.98438C17.6667 5.67708 17.2005 5.52344 16.5703 5.52344H14.6875V8.9375ZM41.5 5.52344H38.0156V15H35.6719V5.52344H32.2344V3.625H41.5V5.52344ZM45.1875 10.0703H49.6875V8.23438H45.1875V5.52344H50.4531V3.625H42.8438V15H50.4688V13.1172H45.1875V10.0703ZM60.7734 11.2109C60.6849 12.4349 60.2318 13.3984 59.4141 14.1016C58.6016 14.8047 57.5286 15.1562 56.1953 15.1562C54.737 15.1562 53.5885 14.6667 52.75 13.6875C51.9167 12.7031 51.5 11.3542 51.5 9.64062V8.94531C51.5 7.85156 51.6927 6.88802 52.0781 6.05469C52.4635 5.22135 53.013 4.58333 53.7266 4.14062C54.4453 3.69271 55.2786 3.46875 56.2266 3.46875C57.5391 3.46875 58.5964 3.82031 59.3984 4.52344C60.2005 5.22656 60.6641 6.21354 60.7891 7.48438H58.4453C58.388 6.75 58.1823 6.21875 57.8281 5.89062C57.4792 5.55729 56.9453 5.39062 56.2266 5.39062C55.4453 5.39062 54.8594 5.67188 54.4688 6.23438C54.0833 6.79167 53.8854 7.65885 53.875 8.83594V9.69531C53.875 10.9245 54.0599 11.8229 54.4297 12.3906C54.8047 12.9583 55.3932 13.2422 56.1953 13.2422C56.9193 13.2422 57.4583 13.0781 57.8125 12.75C58.1719 12.4167 58.3776 11.9036 58.4297 11.2109H60.7734ZM67.1562 5.52344H70.6406V3.625H61.375V5.52344H64.8125V15H67.1562V5.52344ZM78.8281 10.0703H74.3281V13.1172H79.6094V15H71.9844V3.625H79.5938V5.52344H74.3281V8.23438H78.8281V10.0703ZM80.9844 3.625V15H84.5078C85.5026 14.9948 86.3958 14.7656 87.1875 14.3125C87.9792 13.8594 88.5911 13.2214 89.0234 12.3984C89.4609 11.5755 89.6797 10.6354 89.6797 9.57812V9.05469C89.6797 7.9974 89.4583 7.05469 89.0156 6.22656C88.5729 5.39323 87.9557 4.7526 87.1641 4.30469C86.3776 3.85156 85.4844 3.625 84.4844 3.625H80.9844ZM83.3281 13.1172V5.52344H84.4844C85.4062 5.52344 86.1068 5.82292 86.5859 6.42188C87.0651 7.01562 87.3047 7.89062 87.3047 9.04688V9.64844C87.2943 10.763 87.0469 11.6198 86.5625 12.2188C86.0781 12.8177 85.3776 13.1172 84.4609 13.1172H83.3281Z" fill="#7E8183"/>
</svg>
